<mxfile host="app.diagrams.net" modified="2021-08-15T01:32:23.274Z" agent="5.0 (Windows NT 10.0; Win64; x64) AppleWebKit/537.36 (KHTML, like Gecko) Chrome/92.0.4515.107 Safari/537.36" etag="bWKmZhE_gJ0-VtGsgo14" version="14.9.6" type="github">
  <diagram id="0dMApg-XK8nJgOs0maPA" name="Page-1">
    <mxGraphModel dx="1038" dy="579" grid="1" gridSize="10" guides="1" tooltips="1" connect="1" arrows="1" fold="1" page="1" pageScale="1" pageWidth="827" pageHeight="1169" math="0" shadow="0">
      <root>
        <mxCell id="0" />
        <mxCell id="1" parent="0" />
        <mxCell id="LT5VYJJ33Ef8zXuDblJw-7" style="edgeStyle=orthogonalEdgeStyle;rounded=0;sketch=1;orthogonalLoop=1;jettySize=auto;html=1;exitX=0.5;exitY=1;exitDx=0;exitDy=0;" edge="1" parent="1" source="LT5VYJJ33Ef8zXuDblJw-1" target="LT5VYJJ33Ef8zXuDblJw-2">
          <mxGeometry relative="1" as="geometry" />
        </mxCell>
        <mxCell id="LT5VYJJ33Ef8zXuDblJw-8" style="edgeStyle=orthogonalEdgeStyle;rounded=0;sketch=1;orthogonalLoop=1;jettySize=auto;html=1;exitX=0.5;exitY=1;exitDx=0;exitDy=0;" edge="1" parent="1" source="LT5VYJJ33Ef8zXuDblJw-1" target="LT5VYJJ33Ef8zXuDblJw-3">
          <mxGeometry relative="1" as="geometry" />
        </mxCell>
        <mxCell id="LT5VYJJ33Ef8zXuDblJw-9" style="edgeStyle=orthogonalEdgeStyle;rounded=0;sketch=1;orthogonalLoop=1;jettySize=auto;html=1;exitX=0.5;exitY=1;exitDx=0;exitDy=0;" edge="1" parent="1" source="LT5VYJJ33Ef8zXuDblJw-1" target="LT5VYJJ33Ef8zXuDblJw-4">
          <mxGeometry relative="1" as="geometry" />
        </mxCell>
        <mxCell id="LT5VYJJ33Ef8zXuDblJw-1" value="中介" style="rounded=1;whiteSpace=wrap;html=1;sketch=1;fillColor=#f8cecc;strokeColor=#b85450;" vertex="1" parent="1">
          <mxGeometry x="390" y="160" width="120" height="60" as="geometry" />
        </mxCell>
        <mxCell id="LT5VYJJ33Ef8zXuDblJw-2" value="中台1" style="rounded=1;whiteSpace=wrap;html=1;sketch=1;" vertex="1" parent="1">
          <mxGeometry x="190" y="310" width="120" height="60" as="geometry" />
        </mxCell>
        <mxCell id="LT5VYJJ33Ef8zXuDblJw-3" value="中台2" style="rounded=1;whiteSpace=wrap;html=1;sketch=1;" vertex="1" parent="1">
          <mxGeometry x="390" y="310" width="120" height="60" as="geometry" />
        </mxCell>
        <mxCell id="LT5VYJJ33Ef8zXuDblJw-4" value="中台3" style="rounded=1;whiteSpace=wrap;html=1;sketch=1;" vertex="1" parent="1">
          <mxGeometry x="600" y="310" width="120" height="60" as="geometry" />
        </mxCell>
        <mxCell id="LT5VYJJ33Ef8zXuDblJw-6" value="" style="edgeStyle=orthogonalEdgeStyle;rounded=0;sketch=1;orthogonalLoop=1;jettySize=auto;html=1;" edge="1" parent="1" source="LT5VYJJ33Ef8zXuDblJw-5" target="LT5VYJJ33Ef8zXuDblJw-1">
          <mxGeometry relative="1" as="geometry" />
        </mxCell>
        <mxCell id="LT5VYJJ33Ef8zXuDblJw-5" value="前台" style="rounded=1;whiteSpace=wrap;html=1;sketch=1;" vertex="1" parent="1">
          <mxGeometry x="390" y="30" width="120" height="60" as="geometry" />
        </mxCell>
      </root>
    </mxGraphModel>
  </diagram>
</mxfile>
